<?xml version="1.0" encoding="utf-8"?>
<svg viewBox="0 0 1100 500" xmlns="http://www.w3.org/2000/svg">
  <defs>
    <radialGradient gradientUnits="userSpaceOnUse" cx="486.536" cy="150.074" r="475" id="gradient-0" gradientTransform="matrix(0.934377, -0.004128, 0.002123, 0.480488, 43.99183, 79.900324)">
      <stop offset="0" style="stop-color: rgba(79, 70, 229);"/>
      <stop offset="1" style="stop-color: rgba(69, 69, 69, 0);"/>
    </radialGradient>
  </defs>
  <g fill="none" stroke="#272727" class="container-grid" stroke-width="1" transform="matrix(1, 0, 0, 1, 69.102989, 99.999992)">
    <line x1="0" y1="50" x2="950" y2="50" style="stroke: url('#gradient-0');"/>
    <line x1="0" y1="100" x2="950" y2="100" style="stroke: url('#gradient-0');"/>
    <line x1="0" y1="150" x2="950" y2="150" style="stroke: url('#gradient-0');"/>
    <line x1="0" y1="200" x2="950" y2="200" style="stroke: url('#gradient-0');"/>
    <line x1="0" y1="250" x2="950" y2="250" style="stroke: url('#gradient-0');"/>
  </g>
  <g fill="none" stroke="#272727" stroke-width="1" class="container-grid" transform="matrix(1, 0, 0, 1, 69.102989, 99.999992)">
    <line x1="50" y1="0" x2="50" y2="300" style="stroke: url('#gradient-0');"/>
    <line x1="100" y1="0" x2="100" y2="300" style="stroke: url('#gradient-0');"/>
    <line x1="150" y1="0" x2="150" y2="300" style="stroke: url('#gradient-0');"/>
    <line x1="200" y1="0" x2="200" y2="300" style="stroke: url('#gradient-0');"/>
    <line x1="250" y1="0" x2="250" y2="300" style="stroke: url('#gradient-0');"/>
    <line x1="300" y1="0" x2="300" y2="300" style="stroke: url('#gradient-0');"/>
    <line x1="350" y1="0" x2="350" y2="300" style="stroke: url('#gradient-0');"/>
    <line x1="400" y1="0" x2="400" y2="300" style="stroke: url('#gradient-0');"/>
    <line x1="450" y1="0" x2="450" y2="300" style="stroke: url('#gradient-0');"/>
    <line x1="500" y1="0" x2="500" y2="300" style="stroke: url('#gradient-0');"/>
    <line x1="550" y1="0" x2="550" y2="300" style="stroke: url('#gradient-0');"/>
    <line x1="600" y1="0" x2="600" y2="300" style="stroke: url('#gradient-0');"/>
    <line x1="650" y1="0" x2="650" y2="300" style="stroke: url('#gradient-0');"/>
    <line x1="700" y1="0" x2="700" y2="300" style="stroke: url('#gradient-0');"/>
    <line x1="750" y1="0" x2="750" y2="300" style="stroke: url('#gradient-0');"/>
    <line x1="800" y1="0" x2="800" y2="300" style="stroke: url('#gradient-0');"/>
    <line x1="850" y1="0" x2="850" y2="300" style="stroke: url('#gradient-0');"/>
    <line x1="900" y1="0" x2="900" y2="300" style="stroke: url('#gradient-0');"/>
  </g>
</svg>