<svg width="165" height="198" viewBox="0 0 165 198" fill="none" xmlns="http://www.w3.org/2000/svg">
<path d="M3.39052e-05 19.5V55V110.5C0.000110192 149 21.0001 194 76.5001 197.5C132 201 163.449 152.5 164.5 121.5C165.551 90.5 152 61.4043 129.5 48C107 34.5957 85.5001 33 72.5001 35C59.5001 37 52.5 43.5 52.5 55C52.5 66.5 65.5001 72.5 76.5001 72.5C87.5001 72.5 102 77.5 112 87.5C122 97.5 125 112 122 123.5C119 135 110.5 153.5 84.5001 155C58.5001 156.5 42.5 135.5 42.5 106C42.5 76.5 43 47.5 43 47.5V19.5C43 3 30.5 0 21.5 0C12.5 0 3.39052e-05 3 3.39052e-05 19.5Z" fill="#3E1FE9"/>
</svg>
