<svg width="24" height="29" viewBox="0 0 24 29" fill="none" xmlns="http://www.w3.org/2000/svg">
<path d="M7.01197 3.51521C7.01757 3.76233 7.01757 3.91073 7.04083 5.90355C7.06408 7.89637 7.11056 11.7334 7.15486 14.1682C7.19916 16.6029 7.24124 17.6351 7.54049 18.4174C7.83975 19.1998 8.39518 19.7322 8.94892 20.1454C9.50265 20.5587 10.0545 20.8531 10.7269 21.0174C11.3994 21.1818 12.1926 21.2167 12.9588 21.0621C13.7249 20.9076 14.4646 20.5638 15.0324 20.0608C15.6002 19.5578 15.9969 18.8951 16.2479 18.2616C16.4989 17.628 16.6042 17.0232 16.6009 16.414C16.5976 15.8049 16.4854 15.191 16.2241 14.6194C15.9627 14.0478 15.5515 13.5186 15.1163 13.1109C14.6811 12.7033 14.2216 12.4177 13.726 12.2429C13.2305 12.0681 12.699 12.0047 12.0878 11.9338C11.4765 11.8629 10.7856 11.7845 10.2056 11.4859C9.62557 11.1874 9.15667 10.6678 8.83077 10.1147C8.50486 9.56153 8.32256 8.97479 8.30295 8.41536C8.28334 7.85594 8.42698 7.32438 8.66683 6.83883C8.90667 6.35328 9.24262 5.9143 9.69586 5.55422C10.1491 5.19415 10.7191 4.91335 11.3694 4.78691C12.0198 4.66047 12.7498 4.68817 13.6423 4.83698C14.5347 4.98579 15.5894 5.25545 16.6042 5.66555C17.6191 6.07566 18.5942 6.62583 19.5334 7.39038C20.4726 8.15493 21.3762 9.13343 22.0922 10.2454C22.8082 11.3574 23.337 12.6025 23.6309 13.8409C23.9249 15.0792 23.9844 16.3109 23.9532 17.3034C23.9221 18.2959 23.8005 19.0495 23.5053 19.9615C23.2102 20.8734 22.7416 21.944 22.0067 22.9941C21.2718 24.0442 20.2704 25.0742 19.2027 25.9144C18.1349 26.7546 17.0006 27.4051 15.793 27.8393C14.5854 28.2734 13.3042 28.4911 12.0135 28.4982C10.7229 28.5053 9.42255 28.3017 8.16785 27.8623C6.91316 27.4229 5.70413 26.7473 4.66751 25.9574C3.6309 25.1676 2.76697 24.2632 2.07016 23.231C1.37335 22.1989 0.844129 21.0388 0.526196 20.1265C0.208262 19.2142 0.102002 18.5496 0.0460614 15.7572C-0.00987864 12.9648 -0.0153184 8.04489 0.0322216 5.36178C0.0797616 2.67868 0.180448 2.23275 0.424198 1.81114C0.667948 1.38953 1.05459 0.99298 1.50403 0.678218C1.95347 0.363456 2.46522 0.130718 3.02001 0.0414851C3.57481 -0.0477479 4.17198 0.00622314 4.70353 0.210655C5.23509 0.415086 5.70096 0.769213 6.07003 1.1886C6.43909 1.60798 6.71178 2.09226 6.85343 2.50726C6.99509 2.92225 7.00635 3.2681 7.01197 3.51521Z" fill="black"/>
</svg>
