<svg width="102" height="36" viewBox="0 0 102 36" fill="none" xmlns="http://www.w3.org/2000/svg">
<path d="M43.8987 29.2818V9.00647H52.683C54.719 9.00647 56.2704 9.4506 57.3369 10.3389C58.4228 11.2078 58.9658 12.4436 58.9658 14.0463C58.9658 16.0546 58.1222 17.4352 56.4352 18.1883C57.5211 18.5938 58.3937 19.2311 59.053 20.1C59.7123 20.9689 60.042 22.0117 60.042 23.2282C60.042 25.2171 59.3924 26.7233 58.0932 27.7467C56.8133 28.7701 55.1069 29.2818 52.9738 29.2818H43.8987ZM47.9418 17.2614H52.2176C53.0126 17.2614 53.6525 17.049 54.1373 16.6242C54.6221 16.1994 54.8645 15.6394 54.8645 14.9442C54.8645 14.2298 54.6124 13.6698 54.1082 13.2643C53.6234 12.8588 52.906 12.656 51.9558 12.656H47.9418V17.2614ZM47.9418 25.6322H52.7993C53.7689 25.6322 54.5251 25.4102 55.0681 24.9661C55.611 24.5219 55.8825 23.8847 55.8825 23.0544C55.8825 22.282 55.5917 21.6931 55.0099 21.2875C54.4282 20.8627 53.6428 20.6503 52.6539 20.6503H47.9418V25.6322Z" fill="#3E1FE9"/>
<path d="M66.7041 10.8023C65.9285 10.8023 65.3176 10.6092 64.8716 10.223C64.445 9.83676 64.2317 9.30575 64.2317 8.62991C64.2317 7.97336 64.445 7.44234 64.8716 7.03684C65.3176 6.63134 65.9285 6.42859 66.7041 6.42859C67.4797 6.42859 68.0809 6.62168 68.5075 7.00787C68.9341 7.39408 69.1474 7.93475 69.1474 8.62991C69.1474 9.26712 68.9244 9.7885 68.4784 10.194C68.0518 10.5995 67.4604 10.8023 66.7041 10.8023ZM64.7262 29.2818V13.9884H68.7111V29.2818H64.7262Z" fill="#3E1FE9"/>
<path d="M74.0359 29.2818V13.9884H77.8752L77.9338 16.5083C78.4379 15.678 79.0972 15.0022 79.9114 14.4808C80.7454 13.9401 81.6179 13.6698 82.5293 13.6698C82.8785 13.6698 83.1983 13.6987 83.4892 13.7566C83.7996 13.7953 84.0614 13.8533 84.2746 13.9305L83.1983 18.2752C82.9851 18.1593 82.7136 18.0627 82.3838 17.9855C82.0543 17.9083 81.7248 17.8697 81.395 17.8697C80.4447 17.8697 79.6399 18.1979 78.9806 18.8545C78.3407 19.4917 78.0209 20.3027 78.0209 21.2875V29.2818L74.0359 29.2818Z" fill="#3E1FE9"/>
<path d="M92.8273 29.5715C91.14 29.5715 89.8119 29.0308 88.8422 27.9494C87.892 26.8488 87.417 25.3426 87.417 23.4309V13.9884H91.3729V22.7068C91.3729 23.8074 91.6347 24.6764 92.1582 25.3136C92.7009 25.9316 93.438 26.2405 94.3688 26.2405C95.2996 26.2405 96.0655 25.9509 96.6666 25.3715C97.287 24.7923 97.5974 24.0488 97.5974 23.1413V13.9884H101.553V29.2818H97.772L97.6848 27.1384C97.1613 27.8722 96.4631 28.4611 95.5906 28.9053C94.7372 29.3494 93.8161 29.5715 92.8273 29.5715Z" fill="#3E1FE9"/>
<path d="M8.57642 5.00952V30.9906H22.8927C26.8461 30.9906 30.0288 27.8212 30.0288 23.8844C30.0288 20.7243 27.9758 18.0627 25.1218 17.1339V11.4486C25.1218 8.00238 22.2517 5.00952 18.6556 5.00952H8.57642ZM10.8047 7.22932H18.6556C20.9896 7.22932 22.8927 9.24897 22.8927 11.4486V16.7782H16.1586C13.1935 16.7782 10.8065 14.4012 10.8065 11.4486L10.8047 7.22932H10.8047ZM23.7847 22.1079C24.2578 22.1079 24.7116 22.2951 25.0462 22.6282C25.3808 22.9614 25.5687 23.4133 25.5687 23.8844C25.5687 24.8656 24.77 25.6609 23.7847 25.6609C23.3115 25.6609 22.8577 25.4738 22.5232 25.1406C22.1886 24.8074 22.0006 24.3556 22.0006 23.8844C22.0006 23.4133 22.1886 22.9614 22.5232 22.6282C22.8577 22.2951 23.3115 22.1079 23.7847 22.1079Z" fill="url(#paint0_linear_104_474)"/>
<defs>
<linearGradient id="paint0_linear_104_474" x1="8.57642" y1="5.00952" x2="29.9074" y2="23.9733" gradientUnits="userSpaceOnUse">
<stop stop-color="#B014F5"/>
<stop offset="1" stop-color="#3E1FE9"/>
</linearGradient>
</defs>
</svg>
