<svg width="72" height="36" viewBox="0 0 72 36" fill="none" xmlns="http://www.w3.org/2000/svg">
<path d="M9 5V30.9811H23.3162C27.2697 30.981 30.4524 27.8117 30.4524 23.8749C30.4524 20.7148 28.3994 18.0532 25.5454 17.1244V11.4391C25.5454 7.99286 22.6753 5 19.0792 5H9ZM11.2283 7.2198H19.0792C21.4131 7.2198 23.3162 9.23945 23.3162 11.4391V16.7687H16.5822C13.6171 16.7687 11.2301 14.3917 11.23 11.4391L11.2283 7.2198H11.2283ZM24.2083 22.0983C24.6814 22.0983 25.1352 22.2855 25.4698 22.6187C25.8043 22.9519 25.9923 23.4037 25.9923 23.8749C25.9923 24.8561 25.1936 25.6514 24.2083 25.6514C23.7351 25.6514 23.2813 25.4642 22.9468 25.1311C22.6122 24.7979 22.4242 24.3461 22.4242 23.8749C22.4242 23.4037 22.6122 22.9519 22.9468 22.6187C23.2813 22.2855 23.7351 22.0983 24.2083 22.0983" fill="white"/>
<path d="M36.6243 10.3579C35.8486 10.3579 35.2378 10.1529 34.7918 9.74288C34.3652 9.33285 34.1519 8.76906 34.1519 8.0515C34.1519 7.35443 34.3652 6.79062 34.7918 6.36009C35.2378 5.92956 35.8486 5.71429 36.6243 5.71429C37.3999 5.71429 38.0011 5.91931 38.4277 6.32933C38.8543 6.73938 39.0676 7.31343 39.0676 8.0515C39.0676 8.72805 38.8446 9.2816 38.3986 9.71215C37.972 10.1427 37.3806 10.3579 36.6243 10.3579ZM34.6464 29.9782V13.7408H38.6313V29.9782H34.6464Z" fill="white"/>
<path d="M43.9561 29.9782V13.7408H47.7954L47.854 16.4163C48.3581 15.5347 49.0174 14.8171 49.8316 14.2636C50.6656 13.6895 51.5381 13.4025 52.4495 13.4025C52.7987 13.4025 53.1185 13.4332 53.4094 13.4947C53.7198 13.5357 53.9816 13.5973 54.1948 13.6793L53.1185 18.2922C52.9053 18.1691 52.6338 18.0666 52.304 17.9846C51.9745 17.9026 51.645 17.8616 51.3152 17.8616C50.3649 17.8616 49.5601 18.2102 48.9008 18.9072C48.2609 19.5838 47.9411 20.4448 47.9411 21.4904V29.9782L43.9561 29.9782Z" fill="white"/>
<path d="M62.7475 30.2857C61.0602 30.2857 59.7322 29.7116 58.7625 28.5635C57.8122 27.395 57.3372 25.7958 57.3372 23.7661V13.7408H61.2931V22.9973C61.2931 24.1659 61.5549 25.0885 62.0785 25.7651C62.6212 26.4211 63.3583 26.7492 64.2891 26.7492C65.2199 26.7492 65.9858 26.4416 66.5868 25.8266C67.2073 25.2115 67.5176 24.4222 67.5176 23.4586V13.7408H71.4735V29.9782H67.6923L67.6051 27.7025C67.0815 28.4815 66.3833 29.1069 65.5108 29.5784C64.6575 30.0499 63.7364 30.2857 62.7475 30.2857Z" fill="white"/>
</svg>
