<svg width="37" height="36" viewBox="0 0 37 36" fill="none" xmlns="http://www.w3.org/2000/svg">
<path d="M8.57642 5.00952V30.9906H22.8927C26.8461 30.9906 30.0288 27.8212 30.0288 23.8844C30.0288 20.7243 27.9758 18.0627 25.1218 17.1339V11.4486C25.1218 8.00238 22.2517 5.00952 18.6556 5.00952H8.57642ZM10.8047 7.22932H18.6556C20.9896 7.22932 22.8927 9.24897 22.8927 11.4486V16.7782H16.1586C13.1935 16.7782 10.8065 14.4012 10.8065 11.4486L10.8047 7.22932H10.8047ZM23.7847 22.1079C24.2578 22.1079 24.7116 22.2951 25.0462 22.6282C25.3808 22.9614 25.5687 23.4133 25.5687 23.8844C25.5687 24.8656 24.77 25.6609 23.7847 25.6609C23.3115 25.6609 22.8577 25.4738 22.5232 25.1406C22.1886 24.8074 22.0006 24.3556 22.0006 23.8844C22.0006 23.4133 22.1886 22.9614 22.5232 22.6282C22.8577 22.2951 23.3115 22.1079 23.7847 22.1079" fill="url(#paint0_linear_552_164)"/>
<defs>
<linearGradient id="paint0_linear_552_164" x1="8.57642" y1="5.00952" x2="29.9074" y2="23.9733" gradientUnits="userSpaceOnUse">
<stop stop-color="#DA81F2"/>
<stop offset="1" stop-color="#6269E9"/>
</linearGradient>
</defs>
</svg>
