<svg width="54" height="54" viewBox="0 0 54 54" fill="none" xmlns="http://www.w3.org/2000/svg">
<path d="M12.6125 7.51422V46.4858H33.6659C39.4797 46.4858 44.1602 41.7318 44.1602 35.8266C44.1602 31.0864 41.1411 27.094 36.9441 25.7008V17.1729C36.9441 12.0035 32.7233 7.51422 27.4348 7.51422H12.6125ZM15.8895 10.8439H27.4348C30.8672 10.8439 33.6659 13.8734 33.6659 17.1729V25.1673H23.7628C19.4024 25.1673 15.892 21.6018 15.892 17.1729L15.8895 10.8439H15.8895ZM34.9776 33.1617C35.6735 33.1617 36.3408 33.4425 36.8328 33.9423C37.3248 34.442 37.6012 35.1198 37.6012 35.8266C37.6012 37.2983 36.4266 38.4914 34.9776 38.4914C34.2818 38.4914 33.6145 38.2106 33.1225 37.7108C32.6305 37.2111 32.3541 36.5333 32.3541 35.8266C32.3541 35.1198 32.6305 34.442 33.1225 33.9423C33.6145 33.4425 34.2818 33.1617 34.9776 33.1617" fill="url(#paint0_linear_552_222)"/>
<defs>
<linearGradient id="paint0_linear_552_222" x1="12.6125" y1="7.51422" x2="44.5288" y2="35.3321" gradientUnits="userSpaceOnUse">
<stop stop-color="#B014F5"/>
<stop offset="1" stop-color="#3E1FE9"/>
</linearGradient>
</defs>
</svg>
